<svg xmlns="http://www.w3.org/2000/svg" viewBox="0 0 236.44 78.34"><defs><style>polygon,path,circle{fill:#00aeff;}</style></defs><polygon points="136.57 10.48 117.71 28.61 105.69 10.57 103.23 21.75 114.23 40.15 116.41 40.15 132.38 24.67 124.53 57.96 133.12 57.96 144.32 10.48 136.57 10.48"/><polygon points="95.89 10.48 84.69 57.96 93.26 57.96 104.09 10.48 95.89 10.48"/><path d="M176.72,49l-.11,0a33.89,33.89,0,0,1-9.47,1.75c-5.09,0-8.76-1.49-11.22-4.54s-3.08-6.92-1.93-11.81a21.44,21.44,0,0,1,7.71-11.92,20.61,20.61,0,0,1,13.13-4.86,25.63,25.63,0,0,1,14.48,4.55l1.2.81,2.08-8.84-.73-.34a48.6,48.6,0,0,0-8.19-3.11,29.85,29.85,0,0,0-7.34-.86,31.3,31.3,0,0,0-19.76,7A31,31,0,0,0,145.21,34.4c-1.58,6.73-.54,12.48,3.11,17.11s9.47,7,17.28,7a49.2,49.2,0,0,0,17.9-3.71l.49-.2,3.51-15-8.57,0Z"/><polygon points="168.59 37.59 187.47 37.56 189.07 30.79 170.19 30.79 168.59 37.59"/><polygon points="202.93 7.9 198.27 27.9 206.86 27.89 209.64 15.9 234.55 15.9 236.44 7.9 202.93 7.9"/><polygon points="191.32 57.9 225.39 57.9 227.28 49.9 201.77 49.9 204.6 37.9 228.82 37.9 230.71 29.9 197.92 29.9 191.32 57.9"/><circle cx="34.12" cy="6.19" r="6.19"/><path d="M13.62,50.5a6.81,6.81,0,1,1-6.61-7A6.81,6.81,0,0,1,13.62,50.5Z"/><circle cx="47.55" cy="69.31" r="8.8"/><circle cx="70.69" cy="35.73" r="5.04"/><path d="M65,36.52l-22,4.8L36.5,12.68a6.8,6.8,0,0,1-2,.42l4.86,29L13.89,47.67a7.3,7.3,0,0,1,.46,2.51l25.4-5.76,2.81,16.77a9.39,9.39,0,0,1,4.65-1.39L43.52,43.56l22.14-5A5.82,5.82,0,0,1,65,36.52Zm1-4.07a5.63,5.63,0,0,1,1-1.08l-26.65-22a7.17,7.17,0,0,1-.83,1.23L65.28,33.74A5.62,5.62,0,0,1,65.94,32.45Zm.71,7.4-15,20.85A9.79,9.79,0,0,1,54.68,63L68.4,41a5.52,5.52,0,0,1-1-.54A5.87,5.87,0,0,1,66.65,39.85ZM12.71,55,38.12,68a9.61,9.61,0,0,1,1.36-3.71L14,52.66A7.69,7.69,0,0,1,12.71,55ZM30.78,12.25a6.68,6.68,0,0,1-1.34-1L9.23,43.15A7.45,7.45,0,0,1,12.18,45Z"/><path d="M87.28,66.29a3.62,3.62,0,0,1,1.94.46A2.66,2.66,0,0,1,90.3,68a4.39,4.39,0,0,1,.32,1.88,9.62,9.62,0,0,1-.37,2.32,11.66,11.66,0,0,1-.92,2.33A8.33,8.33,0,0,1,88,76.43,6,6,0,0,1,86.2,77.7a5,5,0,0,1-2.15.46H81c-.32,0-.51,0-.54-.15a1,1,0,0,1,.05-.53L83.44,67a1.25,1.25,0,0,1,.24-.53.89.89,0,0,1,.63-.15ZM81.91,77h2.46a3.73,3.73,0,0,0,2.75-1.25A8.22,8.22,0,0,0,89,72.16a5.22,5.22,0,0,0,.09-3.49,2.39,2.39,0,0,0-2.44-1.22H84.57Z"/><path d="M127.24,75,126,77c-.09.16-.19.32-.29.47a4.5,4.5,0,0,1-.3.42,1.79,1.79,0,0,1-.33.3.58.58,0,0,1-.35.11.47.47,0,0,1-.44-.21c-.08-.15,0-.42.23-.81l6.36-10.6a1.25,1.25,0,0,1,.4-.45,1,1,0,0,1,.58-.16.68.68,0,0,1,.5.16.61.61,0,0,1,.17.45L133,77.34a1.16,1.16,0,0,1-.18.71.68.68,0,0,1-.61.28.41.41,0,0,1-.4-.16.85.85,0,0,1-.12-.48L131.54,75Zm4.34-1.22-.19-5.95-3.51,5.95Z"/><path d="M175.7,67.54l-2.82,10.1a1.11,1.11,0,0,1-.27.52.74.74,0,0,1-.55.17c-.25,0-.4-.06-.46-.18a.82.82,0,0,1,0-.51l2.81-10.1h-2.61a.54.54,0,0,1-.42-.14c-.09-.09-.1-.26,0-.49a.74.74,0,0,1,.31-.47.87.87,0,0,1,.5-.15h6.49a.47.47,0,0,1,.4.16.51.51,0,0,1,.05.48.74.74,0,0,1-.34.48,1,1,0,0,1-.46.13Z"/><path d="M214.24,75,213,77c-.09.16-.19.32-.29.47a4.5,4.5,0,0,1-.3.42,1.79,1.79,0,0,1-.33.3.58.58,0,0,1-.35.11.47.47,0,0,1-.44-.21c-.08-.15,0-.42.23-.81l6.36-10.6a1.25,1.25,0,0,1,.4-.45,1,1,0,0,1,.58-.16.68.68,0,0,1,.5.16.61.61,0,0,1,.17.45L220,77.34a1.16,1.16,0,0,1-.18.71.68.68,0,0,1-.61.28.41.41,0,0,1-.4-.16.85.85,0,0,1-.12-.48L218.54,75Zm4.34-1.22-.19-5.95-3.51,5.95Z"/></svg>