<svg xmlns="http://www.w3.org/2000/svg" viewBox="0 0 75.73 78.11"><defs><style>circle,path{fill:#00aeff;}</style></defs><circle cx="34.12" cy="6.19" r="6.19"/><path d="M13.62,50.5a6.81,6.81,0,1,1-6.61-7A6.81,6.81,0,0,1,13.62,50.5Z"/><circle cx="47.55" cy="69.31" r="8.8"/><circle cx="70.69" cy="35.73" r="5.04"/><path d="M65,36.52l-22,4.8L36.5,12.68a6.8,6.8,0,0,1-2,.42l4.86,29L13.89,47.67a7.3,7.3,0,0,1,.46,2.51l25.4-5.76,2.81,16.77a9.39,9.39,0,0,1,4.65-1.39L43.52,43.56l22.14-5A5.82,5.82,0,0,1,65,36.52Zm1-4.07a5.63,5.63,0,0,1,1-1.08l-26.65-22a7.17,7.17,0,0,1-.83,1.23L65.28,33.74A5.62,5.62,0,0,1,65.94,32.45Zm.71,7.4-15,20.85A9.79,9.79,0,0,1,54.68,63L68.4,41a5.52,5.52,0,0,1-1-.54A5.87,5.87,0,0,1,66.65,39.85ZM12.71,55,38.12,68a9.61,9.61,0,0,1,1.36-3.71L14,52.66A7.69,7.69,0,0,1,12.71,55ZM30.78,12.25a6.68,6.68,0,0,1-1.34-1L9.23,43.15A7.45,7.45,0,0,1,12.18,45Z"/></svg>